<svg width="152" height="28" viewBox="0 0 152 28" fill="none" xmlns="http://www.w3.org/2000/svg"><path d="M2.1001 6.99984H4.1001V19.2598H11.6801V20.9998H2.1001V6.99984ZM28.5351 19.2598V20.9998H18.3751V6.99984H28.2551V8.73984H20.3751V13.0398H27.3951V14.7398H20.3751V19.2598H28.5351ZM49.1535 20.9998L49.1335 10.7998L44.0735 19.2998H43.1535L38.0935 10.8598V20.9998H36.1735V6.99984H37.8135L43.6535 16.8398L49.4135 6.99984H51.0535L51.0735 20.9998H49.1535ZM65.9951 21.1598C64.5818 21.1598 63.3084 20.8531 62.1751 20.2398C61.0418 19.6131 60.1484 18.7531 59.4951 17.6598C58.8551 16.5665 58.5351 15.3465 58.5351 13.9998C58.5351 12.6531 58.8551 11.4331 59.4951 10.3398C60.1484 9.24651 61.0418 8.39317 62.1751 7.77984C63.3084 7.15317 64.5818 6.83984 65.9951 6.83984C67.3951 6.83984 68.6618 7.15317 69.7951 7.77984C70.9284 8.39317 71.8151 9.24651 72.4551 10.3398C73.0951 11.4198 73.4151 12.6398 73.4151 13.9998C73.4151 15.3598 73.0951 16.5865 72.4551 17.6798C71.8151 18.7598 70.9284 19.6131 69.7951 20.2398C68.6618 20.8531 67.3951 21.1598 65.9951 21.1598ZM65.9951 19.3798C67.0218 19.3798 67.9418 19.1465 68.7551 18.6798C69.5818 18.2131 70.2284 17.5731 70.6951 16.7598C71.1751 15.9331 71.4151 15.0131 71.4151 13.9998C71.4151 12.9865 71.1751 12.0731 70.6951 11.2598C70.2284 10.4331 69.5818 9.78651 68.7551 9.31984C67.9418 8.85317 67.0218 8.61984 65.9951 8.61984C64.9684 8.61984 64.0351 8.85317 63.1951 9.31984C62.3684 9.78651 61.7151 10.4331 61.2351 11.2598C60.7684 12.0731 60.5351 12.9865 60.5351 13.9998C60.5351 15.0131 60.7684 15.9331 61.2351 16.7598C61.7151 17.5731 62.3684 18.2131 63.1951 18.6798C64.0351 19.1465 64.9684 19.3798 65.9951 19.3798ZM92.912 6.99984V20.9998H91.272L82.872 10.5598V20.9998H80.872V6.99984H82.512L90.912 17.4398V6.99984H92.912Z" fill="white"/><path d="M108 0H138C145.732 0 152 6.26801 152 14C152 21.732 145.732 28 138 28H96L108 0Z" fill="#FFBA41"/><path d="M119.02 17.5H111.58L110.04 21H107.98L114.32 7H116.3L122.66 21H120.56L119.02 17.5ZM118.32 15.9L115.3 9.04L112.28 15.9H118.32ZM128.748 7H134.648C136.128 7 137.442 7.29333 138.588 7.88C139.735 8.46667 140.622 9.29333 141.248 10.36C141.888 11.4133 142.208 12.6267 142.208 14C142.208 15.3733 141.888 16.5933 141.248 17.66C140.622 18.7133 139.735 19.5333 138.588 20.12C137.442 20.7067 136.128 21 134.648 21H128.748V7ZM134.528 19.26C135.662 19.26 136.655 19.04 137.508 18.6C138.375 18.16 139.042 17.5467 139.508 16.76C139.975 15.96 140.208 15.04 140.208 14C140.208 12.96 139.975 12.0467 139.508 11.26C139.042 10.46 138.375 9.84 137.508 9.4C136.655 8.96 135.662 8.74 134.528 8.74H130.748V19.26H134.528Z" fill="white"/></svg>